<svg width="681" height="522" viewBox="0 0 681 522" fill="none" xmlns="http://www.w3.org/2000/svg">
<g id="big fish" filter="url(#filter0_g_252_230)">
<path id="fish white bg" d="M79.8133 177.61C102.166 136.032 143.481 116.793 176.029 109.239C182.597 103.49 193.642 95.0458 210.624 83.1081C286.569 29.7248 335.493 60.2133 350.462 82.1304C446.349 94.2036 449.183 168.976 463.101 180.689C474.235 190.06 496.191 223.229 505.777 238.642C537.336 178.875 581.092 191.236 599.025 204.888C668.425 266.839 616.926 300.097 582.502 308.982C663.861 355.957 610.722 403.54 573.982 421.46C506.839 435.215 478.501 380.296 472.724 351.117L468.248 355.381C456.115 371.035 388.171 401.559 355.716 414.865C358.694 421.953 356.667 438.225 324.74 446.61C292.812 454.995 263.443 430.51 252.749 417.219L208.384 402.172C153.243 421.911 131.17 377.756 127.026 353.211C124.211 354.292 111.761 348.735 84.4787 317.866C57.1964 286.996 54.0025 251.921 55.8159 238.242C49.9263 233.715 39.6231 218.899 45.5269 195.861C51.4307 172.823 70.8444 174.094 79.8133 177.61Z" fill="white"/>
<g id="big fish_2">
<path id="Vector 191" d="M72.8365 180.469C61.2175 182.892 49.8773 200.736 56.8628 219.693L72.8365 180.469Z" fill="#5472AA" stroke="#5472AA" stroke-width="9.92635" stroke-linecap="round"/>
<path id="Vector 192" d="M53.7338 237.046C48.6129 233.92 39.0956 223.521 41.9932 206.931C45.6153 186.194 62.7281 168.934 75.9271 176.851" stroke="#5472AA" stroke-width="9.92635" stroke-linecap="round"/>
<path id="Vector 190" d="M196.125 94.0596C227.171 65.3422 301.478 22.9739 350.328 83.2404C375.73 79.8551 434.367 95.3298 465.707 184.311" stroke="#5472AA" stroke-width="9.92635" stroke-linecap="round"/>
<path id="Vector 189" d="M189.493 393.935C205.434 401.053 240.145 415.478 251.459 416.227" stroke="#5472AA" stroke-width="9.92635" stroke-linecap="round"/>
<path id="Vector 188" d="M260.701 96.2569C322.706 97.4904 459.523 130.527 510.756 252.808" stroke="#5472AA" stroke-width="9.92635" stroke-linecap="round"/>
<path id="Vector 184" d="M361.176 357.822C369.835 357.044 385.988 350.131 381.327 328.704C390.47 323.837 403.635 310.977 383.152 298.474" stroke="#5472AA" stroke-width="9.92635" stroke-linecap="round"/>
<path id="Vector 185" d="M433.318 274.384C443.255 269.722 457.922 255.624 437.096 236.531" stroke="#5472AA" stroke-width="9.92635" stroke-linecap="round"/>
<path id="Vector 186" d="M506.075 238.057C515.11 216.006 544.792 177.426 591.245 199.512C649.311 227.12 653.082 304.842 579.842 306.733C611.099 322.313 657.413 365.191 592.613 412.057C567.493 427.554 508.678 439.182 474.385 361.719" stroke="#5472AA" stroke-width="9.92635" stroke-linecap="round"/>
<path id="Vector 183" d="M380.278 177.643C388.573 181.587 400.485 193.867 381.77 211.436C390.207 218.125 401.221 235.231 377.775 250.136" stroke="#5472AA" stroke-width="9.92635" stroke-linecap="round"/>
<path id="Vector 182" d="M316.119 193.612C322.427 184.402 329.459 164.003 307.126 156.079" stroke="#5472AA" stroke-width="9.92635" stroke-linecap="round"/>
<path id="Vector 181" d="M290.196 327.79C300.609 328.969 320.027 324.283 314.389 296.102C324.975 292.209 341.705 279.305 323.94 258.835" stroke="#5472AA" stroke-width="9.92635" stroke-linecap="round"/>
<path id="Vector 180" d="M124.653 356.453C132.91 381.456 160.625 426.041 205.434 404.363" stroke="#5472AA" stroke-width="9.92635" stroke-linecap="round"/>
<path id="Vector 179" d="M71.2278 297.534C63.2492 287.953 51.6127 260.514 55.0313 241.892C59.3046 218.614 84.2726 111.279 206.869 104.954M225.914 109.863C259.154 145.217 302.38 242.62 209.37 349.393" stroke="#5472AA" stroke-width="9.92635" stroke-linecap="round"/>
<path id="Vector 178" d="M190.093 365.193C187.755 372.115 179.949 384.971 167.425 381.021C154.902 377.071 144.369 367.554 140.668 363.289C122.757 351.75 84.9187 323.998 76.8502 305.305" stroke="#5472AA" stroke-width="9.92635" stroke-linecap="round"/>
<path id="Vector 176" d="M73.6139 245.297C78.8607 250.211 91.309 259.626 99.1276 257.978" stroke="#5472AA" stroke-width="9.92635" stroke-linecap="round"/>
<path id="Vector 177" d="M73.715 244.904C69.096 246.422 58.8772 248.665 54.9541 245.486" stroke="#5472AA" stroke-width="9.92635" stroke-linecap="round"/>
<path id="Vector 175" d="M238.932 385.906C247.26 410.626 272.722 458.725 327.641 445.792C348.715 439.485 363.028 422.587 348.383 397.864" stroke="#5472AA" stroke-width="12.4079" stroke-linecap="round"/>
<path id="Ellipse 2" d="M157.854 213.604C169.952 216.722 177.265 228.596 174.331 240.045C171.397 251.494 159.281 258.362 147.184 255.244C135.087 252.126 127.774 240.25 130.708 228.801C133.642 217.353 145.757 210.486 157.854 213.604Z" fill="#5472AA" stroke="#5472AA" stroke-width="2.48159"/>
<path id="Vector 187" d="M354.211 414.718C384.138 404.674 451.431 376.028 481.183 341.8" stroke="#5472AA" stroke-width="9.92635" stroke-linecap="round"/>
<ellipse id="Ellipse 3" cx="35.2387" cy="33.2259" rx="35.2387" ry="33.2259" transform="matrix(0.968352 0.24959 -0.248238 0.968699 132.919 198.762)" stroke="#5472AA" stroke-width="9.92635"/>
</g>
</g>
<defs>
<filter id="filter0_g_252_230" x="32.5781" y="43.7338" width="611.12" height="414.347" filterUnits="userSpaceOnUse" color-interpolation-filters="sRGB">
<feFlood flood-opacity="0" result="BackgroundImageFix"/>
<feBlend mode="normal" in="SourceGraphic" in2="BackgroundImageFix" result="shape"/>
<feTurbulence type="fractalNoise" baseFrequency="0.76673567295074463 0.76673567295074463" numOctaves="3" seed="7419" />
<feDisplacementMap in="shape" scale="7.8253827095031738" xChannelSelector="R" yChannelSelector="G" result="displacedImage" width="100%" height="100%" />
<feMerge result="effect1_texture_252_230">
<feMergeNode in="displacedImage"/>
</feMerge>
</filter>
</defs>
</svg>
